<svg xmlns="http://www.w3.org/2000/svg" xmlns:xlink="http://www.w3.org/1999/xlink" width="1920" zoomAndPan="magnify" viewBox="0 0 1440 809.999993" height="1080" preserveAspectRatio="xMidYMid meet" version="1.0"><defs><g/></defs><g fill="#4f46e5" fill-opacity="1"><g transform="translate(148.523392, 479.264307)"><g><path d="M 79.84375 2.125 C 65.757812 2.125 53.378906 -1.023438 42.703125 -7.328125 C 32.023438 -13.628906 23.703125 -22.554688 17.734375 -34.109375 C 11.773438 -45.660156 8.796875 -59.320312 8.796875 -75.09375 C 8.796875 -91.332031 11.894531 -105.242188 18.09375 -116.828125 C 24.289062 -128.421875 32.691406 -137.300781 43.296875 -143.46875 C 53.910156 -149.632812 65.890625 -152.71875 79.234375 -152.71875 C 87.722656 -152.71875 95.65625 -151.484375 103.03125 -149.015625 C 110.414062 -146.554688 116.96875 -143.035156 122.6875 -138.453125 C 128.414062 -133.878906 133.113281 -128.472656 136.78125 -122.234375 C 140.457031 -116.003906 142.800781 -109.117188 143.8125 -101.578125 L 112.390625 -101.578125 C 111.378906 -105.273438 109.910156 -108.570312 107.984375 -111.46875 C 106.066406 -114.375 103.726562 -116.867188 100.96875 -118.953125 C 98.207031 -121.046875 95.054688 -122.628906 91.515625 -123.703125 C 87.972656 -124.785156 84.046875 -125.328125 79.734375 -125.328125 C 71.859375 -125.328125 64.9375 -123.367188 58.96875 -119.453125 C 53.007812 -115.546875 48.378906 -109.867188 45.078125 -102.421875 C 41.773438 -94.984375 40.125 -85.972656 40.125 -75.390625 C 40.125 -64.816406 41.753906 -55.789062 45.015625 -48.3125 C 48.285156 -40.832031 52.921875 -35.117188 58.921875 -31.171875 C 64.921875 -27.234375 71.992188 -25.265625 80.140625 -25.265625 C 87.347656 -25.265625 93.578125 -26.59375 98.828125 -29.25 C 104.085938 -31.914062 108.113281 -35.671875 110.90625 -40.515625 C 113.707031 -45.367188 115.109375 -51.066406 115.109375 -57.609375 L 121.78125 -56.703125 L 82.46875 -56.703125 L 82.46875 -80.140625 L 145.234375 -80.140625 L 145.234375 -61.25 C 145.234375 -48.238281 142.421875 -37 136.796875 -27.53125 C 131.171875 -18.070312 123.4375 -10.765625 113.59375 -5.609375 C 103.757812 -0.453125 92.507812 2.125 79.84375 2.125 Z M 79.84375 2.125 "/></g></g><g transform="translate(303.155737, 479.264307)"><g><path d="M 62.96875 2.21875 C 51.582031 2.21875 41.757812 -0.132812 33.5 -4.84375 C 25.25 -9.5625 18.882812 -16.234375 14.40625 -24.859375 C 9.925781 -33.484375 7.6875 -43.625 7.6875 -55.28125 C 7.6875 -66.800781 9.90625 -76.890625 14.34375 -85.546875 C 18.789062 -94.210938 25.054688 -100.984375 33.140625 -105.859375 C 41.234375 -110.742188 50.703125 -113.1875 61.546875 -113.1875 C 69.023438 -113.1875 75.960938 -111.972656 82.359375 -109.546875 C 88.765625 -107.128906 94.375 -103.546875 99.1875 -98.796875 C 104.007812 -94.046875 107.75 -88.113281 110.40625 -81 C 113.070312 -73.894531 114.40625 -65.691406 114.40625 -56.390625 L 114.40625 -48 L 19.703125 -48 L 19.703125 -67 L 99.75 -67 L 85.703125 -62.0625 C 85.703125 -67.851562 84.789062 -72.867188 82.96875 -77.109375 C 81.15625 -81.359375 78.476562 -84.644531 74.9375 -86.96875 C 71.40625 -89.289062 67.046875 -90.453125 61.859375 -90.453125 C 56.671875 -90.453125 52.253906 -89.269531 48.609375 -86.90625 C 44.972656 -84.550781 42.191406 -81.316406 40.265625 -77.203125 C 38.347656 -73.097656 37.390625 -68.382812 37.390625 -63.0625 L 37.390625 -49.71875 C 37.390625 -43.457031 38.46875 -38.132812 40.625 -33.75 C 42.78125 -29.375 45.828125 -26.054688 49.765625 -23.796875 C 53.710938 -21.546875 58.316406 -20.421875 63.578125 -20.421875 C 67.140625 -20.421875 70.382812 -20.941406 73.3125 -21.984375 C 76.25 -23.023438 78.742188 -24.539062 80.796875 -26.53125 C 82.859375 -28.519531 84.425781 -30.960938 85.5 -33.859375 L 112.890625 -29.921875 C 111.140625 -23.453125 107.988281 -17.804688 103.4375 -12.984375 C 98.894531 -8.171875 93.203125 -4.429688 86.359375 -1.765625 C 79.523438 0.890625 71.726562 2.21875 62.96875 2.21875 Z M 62.96875 2.21875 "/></g></g><g transform="translate(424.840278, 479.264307)"><g><path d="M 62.765625 2.21875 C 51.515625 2.21875 41.757812 -0.1875 33.5 -5 C 25.25 -9.820312 18.882812 -16.5625 14.40625 -25.21875 C 9.925781 -33.875 7.6875 -43.929688 7.6875 -55.390625 C 7.6875 -66.972656 9.925781 -77.09375 14.40625 -85.75 C 18.882812 -94.40625 25.25 -101.140625 33.5 -105.953125 C 41.757812 -110.773438 51.515625 -113.1875 62.765625 -113.1875 C 73.953125 -113.1875 83.671875 -110.773438 91.921875 -105.953125 C 100.171875 -101.140625 106.535156 -94.40625 111.015625 -85.75 C 115.503906 -77.09375 117.75 -66.972656 117.75 -55.390625 C 117.75 -43.929688 115.503906 -33.875 111.015625 -25.21875 C 106.535156 -16.5625 100.171875 -9.820312 91.921875 -5 C 83.671875 -0.1875 73.953125 2.21875 62.765625 2.21875 Z M 62.765625 -21.625 C 68.015625 -21.625 72.441406 -23.070312 76.046875 -25.96875 C 79.648438 -28.863281 82.394531 -32.851562 84.28125 -37.9375 C 86.175781 -43.03125 87.125 -48.878906 87.125 -55.484375 C 87.125 -62.148438 86.175781 -68.007812 84.28125 -73.0625 C 82.394531 -78.125 79.648438 -82.101562 76.046875 -85 C 72.441406 -87.894531 68.015625 -89.34375 62.765625 -89.34375 C 57.503906 -89.34375 53.054688 -87.894531 49.421875 -85 C 45.785156 -82.101562 43.039062 -78.125 41.1875 -73.0625 C 39.332031 -68.007812 38.40625 -62.148438 38.40625 -55.484375 C 38.40625 -48.878906 39.332031 -43.03125 41.1875 -37.9375 C 43.039062 -32.851562 45.769531 -28.863281 49.375 -25.96875 C 52.976562 -23.070312 57.441406 -21.625 62.765625 -21.625 Z M 62.765625 -21.625 "/></g></g></g><g fill="#0a1628" fill-opacity="1"><g transform="translate(550.265559, 479.264307)"><g><path d="M 13.03125 0 L 13.03125 -150.59375 L 43.96875 -150.59375 L 43.96875 -25.875 L 109.765625 -25.875 L 109.765625 0 Z M 13.03125 0 "/></g></g><g transform="translate(666.896753, 479.264307)"><g><path d="M 62.765625 2.21875 C 51.515625 2.21875 41.757812 -0.1875 33.5 -5 C 25.25 -9.820312 18.882812 -16.5625 14.40625 -25.21875 C 9.925781 -33.875 7.6875 -43.929688 7.6875 -55.390625 C 7.6875 -66.972656 9.925781 -77.09375 14.40625 -85.75 C 18.882812 -94.40625 25.25 -101.140625 33.5 -105.953125 C 41.757812 -110.773438 51.515625 -113.1875 62.765625 -113.1875 C 73.953125 -113.1875 83.671875 -110.773438 91.921875 -105.953125 C 100.171875 -101.140625 106.535156 -94.40625 111.015625 -85.75 C 115.503906 -77.09375 117.75 -66.972656 117.75 -55.390625 C 117.75 -43.929688 115.503906 -33.875 111.015625 -25.21875 C 106.535156 -16.5625 100.171875 -9.820312 91.921875 -5 C 83.671875 -0.1875 73.953125 2.21875 62.765625 2.21875 Z M 62.765625 -21.625 C 68.015625 -21.625 72.441406 -23.070312 76.046875 -25.96875 C 79.648438 -28.863281 82.394531 -32.851562 84.28125 -37.9375 C 86.175781 -43.03125 87.125 -48.878906 87.125 -55.484375 C 87.125 -62.148438 86.175781 -68.007812 84.28125 -73.0625 C 82.394531 -78.125 79.648438 -82.101562 76.046875 -85 C 72.441406 -87.894531 68.015625 -89.34375 62.765625 -89.34375 C 57.503906 -89.34375 53.054688 -87.894531 49.421875 -85 C 45.785156 -82.101562 43.039062 -78.125 41.1875 -73.0625 C 39.332031 -68.007812 38.40625 -62.148438 38.40625 -55.484375 C 38.40625 -48.878906 39.332031 -43.03125 41.1875 -37.9375 C 43.039062 -32.851562 45.769531 -28.863281 49.375 -25.96875 C 52.976562 -23.070312 57.441406 -21.625 62.765625 -21.625 Z M 62.765625 -21.625 "/></g></g><g transform="translate(792.320767, 479.264307)"><g><path d="M 62.5625 2.21875 C 51.375 2.21875 41.671875 -0.1875 33.453125 -5 C 25.234375 -9.820312 18.882812 -16.5625 14.40625 -25.21875 C 9.925781 -33.875 7.6875 -43.929688 7.6875 -55.390625 C 7.6875 -66.910156 9.925781 -77.015625 14.40625 -85.703125 C 18.882812 -94.390625 25.234375 -101.140625 33.453125 -105.953125 C 41.671875 -110.773438 51.375 -113.1875 62.5625 -113.1875 C 69.363281 -113.1875 75.609375 -112.296875 81.296875 -110.515625 C 86.992188 -108.734375 92.03125 -106.15625 96.40625 -102.78125 C 100.789062 -99.414062 104.378906 -95.359375 107.171875 -90.609375 C 109.972656 -85.859375 111.847656 -80.519531 112.796875 -74.59375 L 84.484375 -70.546875 C 83.878906 -73.441406 82.96875 -76.035156 81.75 -78.328125 C 80.539062 -80.617188 79.023438 -82.585938 77.203125 -84.234375 C 75.390625 -85.890625 73.285156 -87.15625 70.890625 -88.03125 C 68.503906 -88.90625 65.828125 -89.34375 62.859375 -89.34375 C 57.535156 -89.34375 53.070312 -87.925781 49.46875 -85.09375 C 45.863281 -82.269531 43.117188 -78.3125 41.234375 -73.21875 C 39.347656 -68.132812 38.40625 -62.222656 38.40625 -55.484375 C 38.40625 -48.816406 39.347656 -42.9375 41.234375 -37.84375 C 43.117188 -32.757812 45.863281 -28.785156 49.46875 -25.921875 C 53.070312 -23.054688 57.535156 -21.625 62.859375 -21.625 C 65.828125 -21.625 68.503906 -22.078125 70.890625 -22.984375 C 73.285156 -23.898438 75.410156 -25.195312 77.265625 -26.875 C 79.117188 -28.5625 80.664062 -30.601562 81.90625 -33 C 83.15625 -35.394531 84.050781 -38.109375 84.59375 -41.140625 L 112.890625 -36.984375 C 112.015625 -30.992188 110.175781 -25.601562 107.375 -20.8125 C 104.582031 -16.03125 100.992188 -11.90625 96.609375 -8.4375 C 92.234375 -4.96875 87.164062 -2.320312 81.40625 -0.5 C 75.644531 1.3125 69.363281 2.21875 62.5625 2.21875 Z M 62.5625 2.21875 "/></g></g><g transform="translate(912.59037, 479.264307)"><g><path d="M 44.171875 2.125 C 37.023438 2.125 30.617188 0.878906 24.953125 -1.609375 C 19.296875 -4.109375 14.847656 -7.832031 11.609375 -12.78125 C 8.378906 -17.738281 6.765625 -23.890625 6.765625 -31.234375 C 6.765625 -37.492188 7.910156 -42.710938 10.203125 -46.890625 C 12.492188 -51.066406 15.625 -54.4375 19.59375 -57 C 23.570312 -59.5625 28.101562 -61.5 33.1875 -62.8125 C 38.28125 -64.125 43.625 -65.050781 49.21875 -65.59375 C 55.75 -66.269531 61.003906 -66.894531 64.984375 -67.46875 C 68.960938 -68.039062 71.859375 -68.929688 73.671875 -70.140625 C 75.492188 -71.347656 76.40625 -73.164062 76.40625 -75.59375 L 76.40625 -76.109375 C 76.40625 -79.203125 75.710938 -81.84375 74.328125 -84.03125 C 72.953125 -86.226562 70.945312 -87.914062 68.3125 -89.09375 C 65.6875 -90.269531 62.488281 -90.859375 58.71875 -90.859375 C 54.875 -90.859375 51.519531 -90.269531 48.65625 -89.09375 C 45.800781 -87.914062 43.476562 -86.332031 41.6875 -84.34375 C 39.90625 -82.351562 38.644531 -80.113281 37.90625 -77.625 L 10.109375 -81.15625 C 11.660156 -87.894531 14.625 -93.65625 19 -98.4375 C 23.375 -103.21875 28.960938 -106.867188 35.765625 -109.390625 C 42.578125 -111.921875 50.328125 -113.1875 59.015625 -113.1875 C 65.347656 -113.1875 71.363281 -112.445312 77.0625 -110.96875 C 82.757812 -109.488281 87.828125 -107.195312 92.265625 -104.09375 C 96.710938 -101 100.203125 -97.078125 102.734375 -92.328125 C 105.265625 -87.578125 106.53125 -81.898438 106.53125 -75.296875 L 106.53125 0 L 77.71875 0 L 77.71875 -15.5625 L 76.8125 -15.5625 C 74.988281 -12.0625 72.578125 -8.976562 69.578125 -6.3125 C 66.585938 -3.65625 63 -1.582031 58.8125 -0.09375 C 54.632812 1.382812 49.753906 2.125 44.171875 2.125 Z M 52.65625 -19 C 57.4375 -19 61.613281 -19.941406 65.1875 -21.828125 C 68.757812 -23.710938 71.554688 -26.238281 73.578125 -29.40625 C 75.597656 -32.570312 76.609375 -36.144531 76.609375 -40.125 L 76.609375 -51.953125 C 75.660156 -51.410156 74.34375 -50.867188 72.65625 -50.328125 C 70.976562 -49.785156 69.0625 -49.3125 66.90625 -48.90625 C 64.75 -48.507812 62.578125 -48.140625 60.390625 -47.796875 C 58.203125 -47.460938 56.195312 -47.160156 54.375 -46.890625 C 50.738281 -46.359375 47.503906 -45.5 44.671875 -44.3125 C 41.835938 -43.132812 39.644531 -41.550781 38.09375 -39.5625 C 36.550781 -37.582031 35.78125 -35.109375 35.78125 -32.140625 C 35.78125 -29.304688 36.503906 -26.910156 37.953125 -24.953125 C 39.398438 -23.003906 41.382812 -21.523438 43.90625 -20.515625 C 46.4375 -19.503906 49.351562 -19 52.65625 -19 Z M 52.65625 -19 "/></g></g><g transform="translate(1031.445037, 479.264307)"><g><path d="M 42.546875 -150.59375 L 42.546875 0 L 12.4375 0 L 12.4375 -150.59375 Z M 42.546875 -150.59375 "/></g></g><g transform="translate(1086.425427, 479.264307)"><g><path d="M 42.546875 -150.59375 L 42.546875 0 L 12.4375 0 L 12.4375 -150.59375 Z M 42.546875 -150.59375 "/></g></g><g transform="translate(1141.405816, 479.264307)"><g><path d="M 12.328125 40.53125 L 17.78125 17.484375 L 23.65625 18.296875 C 27.351562 19.097656 30.597656 19.226562 33.390625 18.6875 C 36.191406 18.15625 38.453125 16.894531 40.171875 14.90625 C 41.890625 12.914062 43.019531 10.171875 43.5625 6.671875 L 44.875 0.203125 L 2.734375 -111.578125 L 34.671875 -111.578125 L 53.46875 -54.265625 C 55.757812 -47.128906 57.660156 -39.972656 59.171875 -32.796875 C 60.691406 -25.617188 62.359375 -18.191406 64.171875 -10.515625 L 56.90625 -10.515625 C 58.71875 -18.191406 60.535156 -25.632812 62.359375 -32.84375 C 64.179688 -40.050781 66.234375 -47.191406 68.515625 -54.265625 L 88.03125 -111.578125 L 119.65625 -111.578125 L 71.859375 14.046875 C 69.566406 20.046875 66.6875 25.203125 63.21875 29.515625 C 59.75 33.828125 55.488281 37.128906 50.4375 39.421875 C 45.382812 41.710938 39.285156 42.859375 32.140625 42.859375 C 28.296875 42.859375 24.640625 42.632812 21.171875 42.1875 C 17.703125 41.75 14.753906 41.195312 12.328125 40.53125 Z M 12.328125 40.53125 "/></g></g></g></svg>