<svg width="1200" height="630" viewBox="0 0 1200 630" fill="none" xmlns="http://www.w3.org/2000/svg">
  <defs>
    <linearGradient id="bg4" x1="0" y1="0" x2="1200" y2="630" gradientUnits="userSpaceOnUse">
      <stop stop-color="#120B1C"/>
      <stop offset="1" stop-color="#24143C"/>
    </linearGradient>
    <linearGradient id="accent4" x1="788" y1="98" x2="1096" y2="526" gradientUnits="userSpaceOnUse">
      <stop stop-color="#EC4899"/>
      <stop offset="1" stop-color="#F59E0B"/>
    </linearGradient>
  </defs>
  <rect width="1200" height="630" rx="36" fill="url(#bg4)"/>
  <circle cx="1038" cy="96" r="132" fill="#831843" opacity="0.24"/>
  <circle cx="954" cy="520" r="152" fill="#9A3412" opacity="0.16"/>

  <rect x="84" y="72" width="246" height="42" rx="21" fill="#2A153D"/>
  <text x="116" y="100" fill="#F9A8D4" font-family="Inter, Arial, sans-serif" font-size="20" font-weight="700" letter-spacing="1.2">PRACTICAL GUIDANCE</text>

  <text x="84" y="188" fill="white" font-family="Inter, Arial, sans-serif" font-size="62" font-weight="800">How to Make</text>
  <text x="84" y="260" fill="white" font-family="Inter, Arial, sans-serif" font-size="62" font-weight="800">Your Business</text>
  <text x="84" y="332" fill="white" font-family="Inter, Arial, sans-serif" font-size="62" font-weight="800">Easier to</text>
  <text x="84" y="404" fill="#FDBA74" font-family="Inter, Arial, sans-serif" font-size="62" font-weight="800">Understand Online</text>
  <text x="84" y="474" fill="#FBCFE8" font-family="Inter, Arial, sans-serif" font-size="28" font-weight="700">Clear signals beat vague marketing.</text>

  <rect x="776" y="96" width="332" height="430" rx="28" fill="#160E22" stroke="#43235D" stroke-width="2"/>
  <rect x="806" y="128" width="272" height="54" rx="18" fill="#22142F"/>
  <text x="834" y="162" fill="#F5D0FE" font-family="Inter, Arial, sans-serif" font-size="24" font-weight="800">Make the basics obvious</text>
  <rect x="806" y="210" width="272" height="72" rx="22" fill="#20112D"/>
  <circle cx="838" cy="246" r="12" fill="#F472B6"/>
  <text x="864" y="252" fill="white" font-family="Inter, Arial, sans-serif" font-size="22" font-weight="700">What you do</text>
  <rect x="806" y="300" width="272" height="72" rx="22" fill="#20112D"/>
  <circle cx="838" cy="336" r="12" fill="#FB7185"/>
  <text x="864" y="342" fill="white" font-family="Inter, Arial, sans-serif" font-size="22" font-weight="700">Where you work</text>
  <rect x="806" y="390" width="272" height="72" rx="22" fill="#20112D"/>
  <circle cx="838" cy="426" r="12" fill="#F59E0B"/>
  <text x="864" y="432" fill="white" font-family="Inter, Arial, sans-serif" font-size="22" font-weight="700">Why they should trust you</text>
  <rect x="806" y="480" width="272" height="18" rx="9" fill="#3B1F53"/>
  <rect x="806" y="480" width="214" height="18" rx="9" fill="url(#accent4)"/>

  <text x="84" y="574" fill="#D1D5DB" font-family="Inter, Arial, sans-serif" font-size="20" font-weight="600">GeoLocally</text>
  <text x="1010" y="574" fill="#D1D5DB" font-family="Inter, Arial, sans-serif" font-size="18" font-weight="600">geolocally.com/blog</text>
</svg>
